<mxfile host="65bd71144e">
    <diagram id="0tS_AkVy8OuvDBqg8EwA" name="ページ2">
        <mxGraphModel dx="1011" dy="702" grid="1" gridSize="10" guides="1" tooltips="1" connect="1" arrows="1" fold="1" page="1" pageScale="1" pageWidth="827" pageHeight="1169" math="0" shadow="0">
            <root>
                <mxCell id="0"/>
                <mxCell id="1" parent="0"/>
                <mxCell id="N0SrQihncv16vwkMTd4o-3" value="AWS Cloud" style="points=[[0,0],[0.25,0],[0.5,0],[0.75,0],[1,0],[1,0.25],[1,0.5],[1,0.75],[1,1],[0.75,1],[0.5,1],[0.25,1],[0,1],[0,0.75],[0,0.5],[0,0.25]];outlineConnect=0;gradientColor=none;html=1;whiteSpace=wrap;fontSize=12;fontStyle=0;container=1;pointerEvents=0;collapsible=0;recursiveResize=0;shape=mxgraph.aws4.group;grIcon=mxgraph.aws4.group_aws_cloud_alt;strokeColor=#232F3E;fillColor=none;verticalAlign=top;align=left;spacingLeft=30;fontColor=#232F3E;dashed=0;" parent="1" vertex="1">
                    <mxGeometry x="50" y="130" width="640" height="650" as="geometry"/>
                </mxCell>
                <mxCell id="N0SrQihncv16vwkMTd4o-4" value="Region ap-northeast-1(Tokyo)" style="points=[[0,0],[0.25,0],[0.5,0],[0.75,0],[1,0],[1,0.25],[1,0.5],[1,0.75],[1,1],[0.75,1],[0.5,1],[0.25,1],[0,1],[0,0.75],[0,0.5],[0,0.25]];outlineConnect=0;gradientColor=none;html=1;whiteSpace=wrap;fontSize=12;fontStyle=0;container=1;pointerEvents=0;collapsible=0;recursiveResize=0;shape=mxgraph.aws4.group;grIcon=mxgraph.aws4.group_region;strokeColor=#00A4A6;fillColor=none;verticalAlign=top;align=left;spacingLeft=30;fontColor=#147EBA;dashed=1;" parent="N0SrQihncv16vwkMTd4o-3" vertex="1">
                    <mxGeometry x="30" y="90" width="580" height="550" as="geometry"/>
                </mxCell>
                <mxCell id="N0SrQihncv16vwkMTd4o-2" value="&lt;font style=&quot;color: rgb(153, 51, 255);&quot;&gt;VPC (10.0.0.0/16)&lt;/font&gt;" style="points=[[0,0],[0.25,0],[0.5,0],[0.75,0],[1,0],[1,0.25],[1,0.5],[1,0.75],[1,1],[0.75,1],[0.5,1],[0.25,1],[0,1],[0,0.75],[0,0.5],[0,0.25]];outlineConnect=0;gradientColor=none;html=1;whiteSpace=wrap;fontSize=12;fontStyle=0;container=1;pointerEvents=0;collapsible=0;recursiveResize=0;shape=mxgraph.aws4.group;grIcon=mxgraph.aws4.group_vpc2;strokeColor=#8C4FFF;fillColor=none;verticalAlign=top;align=left;spacingLeft=30;fontColor=#AAB7B8;dashed=0;" parent="N0SrQihncv16vwkMTd4o-4" vertex="1">
                    <mxGeometry x="20" y="100" width="530" height="440" as="geometry"/>
                </mxCell>
                <mxCell id="N0SrQihncv16vwkMTd4o-5" value="Availability Zone-1a" style="fillColor=none;strokeColor=#147EBA;dashed=1;verticalAlign=top;fontStyle=0;fontColor=#147EBA;whiteSpace=wrap;html=1;" parent="N0SrQihncv16vwkMTd4o-2" vertex="1">
                    <mxGeometry x="20" y="50" width="180" height="380" as="geometry"/>
                </mxCell>
                <mxCell id="I-pV9gJLjYMyzgxHMYEj-2" value="Availability Zone-1c" style="fillColor=none;strokeColor=#147EBA;dashed=1;verticalAlign=top;fontStyle=0;fontColor=#147EBA;whiteSpace=wrap;html=1;" parent="N0SrQihncv16vwkMTd4o-2" vertex="1">
                    <mxGeometry x="322" y="50" width="180" height="380" as="geometry"/>
                </mxCell>
                <mxCell id="I-pV9gJLjYMyzgxHMYEj-3" value="Public subnet" style="points=[[0,0],[0.25,0],[0.5,0],[0.75,0],[1,0],[1,0.25],[1,0.5],[1,0.75],[1,1],[0.75,1],[0.5,1],[0.25,1],[0,1],[0,0.75],[0,0.5],[0,0.25]];outlineConnect=0;gradientColor=none;html=1;whiteSpace=wrap;fontSize=12;fontStyle=0;container=1;pointerEvents=0;collapsible=0;recursiveResize=0;shape=mxgraph.aws4.group;grIcon=mxgraph.aws4.group_security_group;grStroke=0;strokeColor=#7AA116;fillColor=#F2F6E8;verticalAlign=top;align=left;spacingLeft=30;fontColor=#248814;dashed=0;" parent="N0SrQihncv16vwkMTd4o-2" vertex="1">
                    <mxGeometry x="45" y="90" width="135" height="160" as="geometry"/>
                </mxCell>
                <mxCell id="Ag1GdB6lWW4XXIva31h7-1" value="EC2" style="sketch=0;points=[[0,0,0],[0.25,0,0],[0.5,0,0],[0.75,0,0],[1,0,0],[0,1,0],[0.25,1,0],[0.5,1,0],[0.75,1,0],[1,1,0],[0,0.25,0],[0,0.5,0],[0,0.75,0],[1,0.25,0],[1,0.5,0],[1,0.75,0]];outlineConnect=0;fontColor=#232F3E;fillColor=#ED7100;strokeColor=#ffffff;dashed=0;verticalLabelPosition=bottom;verticalAlign=top;align=center;html=1;fontSize=12;fontStyle=0;aspect=fixed;shape=mxgraph.aws4.resourceIcon;resIcon=mxgraph.aws4.ec2;" parent="I-pV9gJLjYMyzgxHMYEj-3" vertex="1">
                    <mxGeometry x="36" y="39" width="55" height="55" as="geometry"/>
                </mxCell>
                <mxCell id="2" value="Security group app_server" style="fillColor=none;strokeColor=#DD3522;verticalAlign=top;fontStyle=0;fontColor=#DD3522;whiteSpace=wrap;html=1;labelPosition=center;verticalLabelPosition=bottom;align=center;" vertex="1" parent="I-pV9gJLjYMyzgxHMYEj-3">
                    <mxGeometry x="7" y="30" width="115" height="100" as="geometry"/>
                </mxCell>
                <mxCell id="I-pV9gJLjYMyzgxHMYEj-4" value="Private subnet" style="points=[[0,0],[0.25,0],[0.5,0],[0.75,0],[1,0],[1,0.25],[1,0.5],[1,0.75],[1,1],[0.75,1],[0.5,1],[0.25,1],[0,1],[0,0.75],[0,0.5],[0,0.25]];outlineConnect=0;gradientColor=none;html=1;whiteSpace=wrap;fontSize=12;fontStyle=0;container=1;pointerEvents=0;collapsible=0;recursiveResize=0;shape=mxgraph.aws4.group;grIcon=mxgraph.aws4.group_security_group;grStroke=0;strokeColor=#00A4A6;fillColor=#E6F6F7;verticalAlign=top;align=left;spacingLeft=30;fontColor=#147EBA;dashed=0;" parent="N0SrQihncv16vwkMTd4o-2" vertex="1">
                    <mxGeometry x="45" y="270" width="137" height="160" as="geometry"/>
                </mxCell>
                <mxCell id="fveCjxuh1rEbp4cHxNdM-1" value="RDS" style="sketch=0;points=[[0,0,0],[0.25,0,0],[0.5,0,0],[0.75,0,0],[1,0,0],[0,1,0],[0.25,1,0],[0.5,1,0],[0.75,1,0],[1,1,0],[0,0.25,0],[0,0.5,0],[0,0.75,0],[1,0.25,0],[1,0.5,0],[1,0.75,0]];outlineConnect=0;fontColor=#232F3E;fillColor=#C925D1;strokeColor=#ffffff;dashed=0;verticalLabelPosition=bottom;verticalAlign=top;align=center;html=1;fontSize=12;fontStyle=0;aspect=fixed;shape=mxgraph.aws4.resourceIcon;resIcon=mxgraph.aws4.rds;" parent="I-pV9gJLjYMyzgxHMYEj-4" vertex="1">
                    <mxGeometry x="37.5" y="33.5" width="55" height="55" as="geometry"/>
                </mxCell>
                <mxCell id="4" value="Security group rds" style="fillColor=none;strokeColor=#DD3522;verticalAlign=top;fontStyle=0;fontColor=#DD3522;whiteSpace=wrap;html=1;labelPosition=center;verticalLabelPosition=bottom;align=center;" vertex="1" parent="I-pV9gJLjYMyzgxHMYEj-4">
                    <mxGeometry x="7" y="30" width="113" height="90" as="geometry"/>
                </mxCell>
                <mxCell id="I-pV9gJLjYMyzgxHMYEj-12" value="Public subnet" style="points=[[0,0],[0.25,0],[0.5,0],[0.75,0],[1,0],[1,0.25],[1,0.5],[1,0.75],[1,1],[0.75,1],[0.5,1],[0.25,1],[0,1],[0,0.75],[0,0.5],[0,0.25]];outlineConnect=0;gradientColor=none;html=1;whiteSpace=wrap;fontSize=12;fontStyle=0;container=1;pointerEvents=0;collapsible=0;recursiveResize=0;shape=mxgraph.aws4.group;grIcon=mxgraph.aws4.group_security_group;grStroke=0;strokeColor=#7AA116;fillColor=#F2F6E8;verticalAlign=top;align=left;spacingLeft=30;fontColor=#248814;dashed=0;" parent="N0SrQihncv16vwkMTd4o-2" vertex="1">
                    <mxGeometry x="347" y="90" width="130" height="130" as="geometry"/>
                </mxCell>
                <mxCell id="I-pV9gJLjYMyzgxHMYEj-13" value="Private subnet" style="points=[[0,0],[0.25,0],[0.5,0],[0.75,0],[1,0],[1,0.25],[1,0.5],[1,0.75],[1,1],[0.75,1],[0.5,1],[0.25,1],[0,1],[0,0.75],[0,0.5],[0,0.25]];outlineConnect=0;gradientColor=none;html=1;whiteSpace=wrap;fontSize=12;fontStyle=0;container=1;pointerEvents=0;collapsible=0;recursiveResize=0;shape=mxgraph.aws4.group;grIcon=mxgraph.aws4.group_security_group;grStroke=0;strokeColor=#00A4A6;fillColor=#E6F6F7;verticalAlign=top;align=left;spacingLeft=30;fontColor=#147EBA;dashed=0;" parent="N0SrQihncv16vwkMTd4o-2" vertex="1">
                    <mxGeometry x="347" y="270" width="130" height="130" as="geometry"/>
                </mxCell>
                <mxCell id="p5qvpB2iUjAtg1sMdcBY-3" value="ALB" style="sketch=0;outlineConnect=0;fontColor=#232F3E;gradientColor=none;fillColor=#8C4FFF;strokeColor=none;dashed=0;verticalLabelPosition=bottom;verticalAlign=top;align=center;html=1;fontSize=12;fontStyle=0;aspect=fixed;pointerEvents=1;shape=mxgraph.aws4.application_load_balancer;" parent="N0SrQihncv16vwkMTd4o-2" vertex="1">
                    <mxGeometry x="237.5" y="70" width="55" height="55" as="geometry"/>
                </mxCell>
                <mxCell id="6" style="edgeStyle=none;html=1;entryX=0.5;entryY=0;entryDx=0;entryDy=0;" edge="1" parent="N0SrQihncv16vwkMTd4o-2" source="2" target="4">
                    <mxGeometry relative="1" as="geometry"/>
                </mxCell>
                <mxCell id="10" style="edgeStyle=none;html=1;exitX=0;exitY=0.75;exitDx=0;exitDy=0;exitPerimeter=0;entryX=1;entryY=0.5;entryDx=0;entryDy=0;" edge="1" parent="N0SrQihncv16vwkMTd4o-4" source="p5qvpB2iUjAtg1sMdcBY-1" target="3">
                    <mxGeometry relative="1" as="geometry"/>
                </mxCell>
                <mxCell id="p5qvpB2iUjAtg1sMdcBY-1" value="WAF" style="sketch=0;points=[[0,0,0],[0.25,0,0],[0.5,0,0],[0.75,0,0],[1,0,0],[0,1,0],[0.25,1,0],[0.5,1,0],[0.75,1,0],[1,1,0],[0,0.25,0],[0,0.5,0],[0,0.75,0],[1,0.25,0],[1,0.5,0],[1,0.75,0]];outlineConnect=0;fontColor=#232F3E;fillColor=#DD344C;strokeColor=#ffffff;dashed=0;verticalLabelPosition=bottom;verticalAlign=top;align=center;html=1;fontSize=12;fontStyle=0;aspect=fixed;shape=mxgraph.aws4.resourceIcon;resIcon=mxgraph.aws4.waf;" parent="N0SrQihncv16vwkMTd4o-4" vertex="1">
                    <mxGeometry x="420" y="24" width="55" height="55" as="geometry"/>
                </mxCell>
                <mxCell id="p5qvpB2iUjAtg1sMdcBY-9" value="" style="edgeStyle=none;html=1;" parent="N0SrQihncv16vwkMTd4o-4" source="p5qvpB2iUjAtg1sMdcBY-2" edge="1">
                    <mxGeometry relative="1" as="geometry">
                        <mxPoint x="285.0028873239437" y="160" as="targetPoint"/>
                    </mxGeometry>
                </mxCell>
                <mxCell id="p5qvpB2iUjAtg1sMdcBY-2" value="IGW" style="sketch=0;outlineConnect=0;fontColor=#232F3E;gradientColor=none;fillColor=#8C4FFF;strokeColor=none;dashed=0;verticalLabelPosition=bottom;verticalAlign=top;align=center;html=1;fontSize=12;fontStyle=0;aspect=fixed;pointerEvents=1;shape=mxgraph.aws4.internet_gateway;" parent="N0SrQihncv16vwkMTd4o-4" vertex="1">
                    <mxGeometry x="257.5" y="71" width="55" height="55" as="geometry"/>
                </mxCell>
                <mxCell id="7" style="edgeStyle=none;html=1;exitX=0;exitY=0.5;exitDx=0;exitDy=0;entryX=1;entryY=0.5;entryDx=0;entryDy=0;" edge="1" parent="N0SrQihncv16vwkMTd4o-4" source="3" target="2">
                    <mxGeometry relative="1" as="geometry"/>
                </mxCell>
                <mxCell id="3" value="Security group alb" style="fillColor=none;strokeColor=#DD3522;verticalAlign=top;fontStyle=0;fontColor=#DD3522;whiteSpace=wrap;html=1;labelPosition=center;verticalLabelPosition=bottom;align=center;textShadow=0;" vertex="1" parent="N0SrQihncv16vwkMTd4o-4">
                    <mxGeometry x="225" y="160" width="115" height="100" as="geometry"/>
                </mxCell>
                <mxCell id="8" style="edgeStyle=none;html=1;exitX=1;exitY=0.5;exitDx=0;exitDy=0;entryX=0;entryY=0.5;entryDx=0;entryDy=0;" edge="1" parent="N0SrQihncv16vwkMTd4o-4" source="2" target="3">
                    <mxGeometry relative="1" as="geometry"/>
                </mxCell>
                <mxCell id="9" style="edgeStyle=none;html=1;exitX=1;exitY=0.5;exitDx=0;exitDy=0;entryX=0;entryY=0.75;entryDx=0;entryDy=0;entryPerimeter=0;" edge="1" parent="N0SrQihncv16vwkMTd4o-4" source="3" target="p5qvpB2iUjAtg1sMdcBY-1">
                    <mxGeometry relative="1" as="geometry"/>
                </mxCell>
                <mxCell id="p5qvpB2iUjAtg1sMdcBY-11" value="" style="edgeStyle=orthogonalEdgeStyle;html=1;endArrow=block;elbow=vertical;startArrow=block;startFill=1;endFill=1;strokeColor=#545B64;rounded=0;" parent="N0SrQihncv16vwkMTd4o-3" target="p5qvpB2iUjAtg1sMdcBY-2" edge="1">
                    <mxGeometry width="100" relative="1" as="geometry">
                        <mxPoint x="315" as="sourcePoint"/>
                        <mxPoint x="315" y="110.00062628102933" as="targetPoint"/>
                        <Array as="points"/>
                    </mxGeometry>
                </mxCell>
                <mxCell id="MfKX_wUYLSHCpUCJLvRI-1" value="CloudWatch" style="sketch=0;points=[[0,0,0],[0.25,0,0],[0.5,0,0],[0.75,0,0],[1,0,0],[0,1,0],[0.25,1,0],[0.5,1,0],[0.75,1,0],[1,1,0],[0,0.25,0],[0,0.5,0],[0,0.75,0],[1,0.25,0],[1,0.5,0],[1,0.75,0]];points=[[0,0,0],[0.25,0,0],[0.5,0,0],[0.75,0,0],[1,0,0],[0,1,0],[0.25,1,0],[0.5,1,0],[0.75,1,0],[1,1,0],[0,0.25,0],[0,0.5,0],[0,0.75,0],[1,0.25,0],[1,0.5,0],[1,0.75,0]];outlineConnect=0;fontColor=#232F3E;fillColor=#E7157B;strokeColor=#ffffff;dashed=0;verticalLabelPosition=bottom;verticalAlign=top;align=center;html=1;fontSize=12;fontStyle=0;aspect=fixed;shape=mxgraph.aws4.resourceIcon;resIcon=mxgraph.aws4.cloudwatch_2;" parent="N0SrQihncv16vwkMTd4o-3" vertex="1">
                    <mxGeometry x="448" y="6" width="58" height="58" as="geometry"/>
                </mxCell>
                <mxCell id="p5qvpB2iUjAtg1sMdcBY-4" value="Internet" style="sketch=0;outlineConnect=0;fontColor=#232F3E;gradientColor=none;fillColor=#232F3D;strokeColor=none;dashed=0;verticalLabelPosition=bottom;verticalAlign=top;align=center;html=1;fontSize=12;fontStyle=0;aspect=fixed;pointerEvents=1;shape=mxgraph.aws4.internet_alt2;" parent="1" vertex="1">
                    <mxGeometry x="337.5" y="50" width="55" height="55" as="geometry"/>
                </mxCell>
                <mxCell id="p5qvpB2iUjAtg1sMdcBY-5" value="User" style="sketch=0;outlineConnect=0;fontColor=#232F3E;gradientColor=none;fillColor=#232F3D;strokeColor=none;dashed=0;verticalLabelPosition=bottom;verticalAlign=top;align=center;html=1;fontSize=12;fontStyle=0;aspect=fixed;pointerEvents=1;shape=mxgraph.aws4.user;" parent="1" vertex="1">
                    <mxGeometry x="550" y="40" width="55" height="55" as="geometry"/>
                </mxCell>
                <mxCell id="p5qvpB2iUjAtg1sMdcBY-13" value="" style="edgeStyle=orthogonalEdgeStyle;html=1;endArrow=block;elbow=vertical;startArrow=block;startFill=1;endFill=1;strokeColor=#545B64;rounded=0;" parent="1" edge="1">
                    <mxGeometry width="100" relative="1" as="geometry">
                        <mxPoint x="413.5" y="77.49999999999989" as="sourcePoint"/>
                        <mxPoint x="535" y="76.88" as="targetPoint"/>
                    </mxGeometry>
                </mxCell>
            </root>
        </mxGraphModel>
    </diagram>
</mxfile>
